<svg version="1.1" xmlns="http://www.w3.org/2000/svg" style="display: block;" viewBox="0 0 2048 2048" width="1254" height="1254" preserveAspectRatio="none">
<path transform="translate(0,0)" fill="rgb(11,13,14)" d="M 0 0 L 344.507 0 L 1703.57 0 L 2048 0 L 2048 340.512 L 2048 1708.55 L 2048 2048 L 1707.78 2048 L 341.096 2048 L 0 2048 L 0 1703.61 L 0 345.118 L 0 0 z"/>
<path transform="translate(0,0)" fill="rgb(244,244,243)" d="M 0 0 L 344.507 0 C 323.114 3.18485 307.741 3.5372 285.883 8.42011 C 200.207 27.2805 124.255 76.5188 72.0651 147.034 C 39.299 191.369 16.7926 242.431 6.17268 296.528 C 3.6274 310.131 2.33134 334.948 0 345.118 L 0 0 z"/>
<path transform="translate(0,0)" fill="rgb(244,244,243)" d="M 0 1703.61 C 3.59742 1727.81 3.72645 1743.61 9.63847 1768.5 C 29.9074 1851.55 78.356 1924.98 146.722 1976.3 C 190.015 2008.38 239.855 2030.51 292.685 2041.11 C 309.103 2044.29 326.359 2045.16 341.096 2048 L 0 2048 L 0 1703.61 z"/>
<path transform="translate(0,0)" fill="rgb(244,244,243)" d="M 1703.57 0 L 2048 0 L 2048 340.512 C 2046.83 334.769 2046.32 326.538 2045.77 320.594 C 2040.14 259.444 2015.13 198.433 1978.78 149.072 C 1927.53 78.9884 1852.95 29.5032 1768.46 9.52627 C 1743.06 3.62546 1727.78 3.68748 1703.57 0 z"/>
<path transform="translate(0,0)" fill="rgb(244,244,243)" d="M 1707.78 2048 C 1723.31 2045.17 1739.67 2044.69 1757.04 2041.3 C 1812.53 2030.15 1864.66 2006.22 1909.3 1971.42 C 1974.22 1920.43 2020.04 1849.03 2039.35 1768.77 C 2044.26 1747.65 2045.39 1729.82 2048 1708.55 L 2048 2048 L 1707.78 2048 z"/>
<path transform="translate(0,0)" fill="rgb(244,244,243)" d="M 626.614 489.954 L 939.683 489.939 L 1065.63 489.932 C 1095.65 489.936 1125.74 489.029 1155.56 492.227 C 1249.8 502.289 1337.66 544.639 1404.24 612.094 C 1482.52 691.368 1526.53 798.219 1526.77 909.627 C 1527.32 1022.06 1483.21 1130.12 1404.14 1210.06 C 1341.08 1273.28 1258.97 1313.99 1170.47 1325.92 C 1136.62 1330.31 1101.25 1329.44 1067.06 1329.46 L 937.265 1329.41 L 937.218 1155.54 C 981.082 1154.59 1026.46 1156.18 1070.46 1155.53 C 1095.44 1155.16 1119.85 1156.65 1144.73 1153.24 C 1163.56 1150.66 1181.97 1145.62 1199.49 1138.26 C 1262.82 1112.11 1306.02 1064.03 1332.1 1001.66 C 1342.98 972.982 1348.64 942.58 1348.79 911.902 C 1349.15 846.647 1323.23 783.994 1276.87 738.066 C 1246.82 707.875 1209.21 686.319 1167.97 675.654 C 1134.55 667.188 1109.32 668.746 1075.51 668.766 L 1004.36 668.818 L 792.868 668.848 L 792.83 1561.82 L 626.31 1561.88 L 626.532 806.33 C 626.603 701.805 625.16 594.183 626.614 489.954 z"/>
<path transform="translate(0,0)" fill="rgb(244,244,243)" d="M 870.069 787.253 C 876.31 789.888 902.738 807.818 909.92 812.701 C 953.846 842.558 995.562 866.424 1032.64 905.039 C 1033.03 915.4 1032.79 926.787 1032.78 937.226 C 990.961 966.23 946.012 995.053 903.409 1022.96 C 893.673 1029.32 880.456 1038.27 870.097 1042.72 L 870.095 993.018 C 908.171 968.064 946.116 942.908 983.926 917.551 L 869.99 840.892 L 870.069 787.253 z"/>
<path transform="translate(0,0)" fill="rgb(244,244,243)" d="M 1053.08 992.151 L 1241.1 992.09 L 1240.96 1040.91 L 1053 1040.91 C 1052.93 1024.66 1052.95 1008.4 1053.08 992.151 z"/>
</svg>